<svg width="390" height="52" viewBox="0 0 390 52" fill="none" xmlns="http://www.w3.org/2000/svg">
<g clip-path="url(#clip0_2492_14498)">
<path d="M7.99984 20.3337C12.0432 20.3337 15.3332 17.044 15.3332 13.0003C15.3332 12.3024 15.2357 11.6146 15.0428 10.9559C14.9478 10.632 14.6096 10.4459 14.2848 10.541C13.9606 10.6357 13.7751 10.9751 13.8698 11.299C14.0296 11.8463 14.1109 12.4189 14.1109 13.0003C14.1109 16.3699 11.3695 19.1114 7.99984 19.1114C4.63022 19.1114 1.88873 16.3699 1.88873 13.0003C1.88873 9.63071 4.63022 6.88921 7.99984 6.88921C9.22445 6.88921 10.4027 7.24729 11.4071 7.92449C11.6866 8.11323 12.0668 8.03908 12.2552 7.75948C12.4438 7.47959 12.3703 7.09973 12.0904 6.91115C10.8834 6.09728 9.46898 5.66699 7.99984 5.66699C3.95645 5.66699 0.666504 8.95664 0.666504 13.0003C0.666504 17.044 3.95645 20.3337 7.99984 20.3337Z" fill="#FF3F3A"/>
<path d="M14.8617 6.52885L7.99971 13.3905L5.8044 11.1955C5.54399 10.9353 5.12211 10.9353 4.86169 11.1955C4.60144 11.4559 4.60144 11.8778 4.86169 12.1382L7.52836 14.8049C7.65873 14.9353 7.82898 15.0002 7.99971 15.0002C8.17045 15.0002 8.3407 14.9353 8.47107 14.8049L15.8044 7.47156C16.0647 7.21114 16.0647 6.78927 15.8044 6.52885C15.544 6.2686 15.1221 6.2686 14.8617 6.52885Z" fill="#FF3F3A"/>
</g>
<path d="M42.824 19H41.624C41.4853 19 41.3733 18.9653 41.288 18.896C41.2027 18.8267 41.1387 18.7387 41.096 18.632L40.024 15.864H34.88L33.808 18.632C33.7707 18.728 33.7067 18.8133 33.616 18.888C33.5253 18.9627 33.4133 19 33.28 19H32.08L36.664 7.536H38.24L42.824 19ZM35.312 14.744H39.592L37.792 10.08C37.6747 9.792 37.56 9.432 37.448 9C37.3893 9.21867 37.3307 9.42133 37.272 9.608C37.2187 9.78933 37.1653 9.94933 37.112 10.088L35.312 14.744ZM47.4568 19V12.112L46.5608 12.008C46.4488 11.9813 46.3554 11.9413 46.2808 11.888C46.2114 11.8293 46.1768 11.7467 46.1768 11.64V11.056H47.4568V10.272C47.4568 9.808 47.5208 9.39733 47.6488 9.04C47.7821 8.67733 47.9688 8.37333 48.2088 8.128C48.4541 7.87733 48.7474 7.688 49.0888 7.56C49.4301 7.432 49.8141 7.368 50.2408 7.368C50.6034 7.368 50.9394 7.42133 51.2488 7.528L51.2168 8.24C51.2114 8.34667 51.1661 8.41067 51.0808 8.432C50.9954 8.45333 50.8754 8.464 50.7208 8.464H50.4728C50.2274 8.464 50.0034 8.496 49.8008 8.56C49.6034 8.624 49.4328 8.728 49.2888 8.872C49.1448 9.016 49.0328 9.20533 48.9528 9.44C48.8781 9.67467 48.8408 9.96533 48.8408 10.312V11.056H51.1848V12.088H48.8888V19H47.4568ZM55.7354 10.768C56.2207 10.768 56.6687 10.8507 57.0794 11.016C57.49 11.176 57.8447 11.4107 58.1434 11.72C58.442 12.024 58.674 12.4027 58.8394 12.856C59.01 13.304 59.0954 13.816 59.0954 14.392C59.0954 14.616 59.0714 14.7653 59.0234 14.84C58.9754 14.9147 58.8847 14.952 58.7514 14.952H53.3594C53.37 15.464 53.4394 15.9093 53.5674 16.288C53.6954 16.6667 53.8714 16.984 54.0954 17.24C54.3194 17.4907 54.586 17.68 54.8954 17.808C55.2047 17.9307 55.5514 17.992 55.9354 17.992C56.2927 17.992 56.5994 17.952 56.8554 17.872C57.1167 17.7867 57.3407 17.696 57.5274 17.6C57.714 17.504 57.8687 17.416 57.9914 17.336C58.1194 17.2507 58.2287 17.208 58.3194 17.208C58.4367 17.208 58.5274 17.2533 58.5914 17.344L58.9914 17.864C58.8154 18.0773 58.6047 18.264 58.3594 18.424C58.114 18.5787 57.85 18.7067 57.5674 18.808C57.29 18.9093 57.002 18.984 56.7034 19.032C56.4047 19.0853 56.1087 19.112 55.8154 19.112C55.2554 19.112 54.738 19.0187 54.2634 18.832C53.794 18.64 53.386 18.3627 53.0394 18C52.698 17.632 52.4314 17.1787 52.2394 16.64C52.0474 16.1013 51.9514 15.4827 51.9514 14.784C51.9514 14.2187 52.0367 13.6907 52.2074 13.2C52.3834 12.7093 52.634 12.2853 52.9594 11.928C53.2847 11.5653 53.682 11.2827 54.1514 11.08C54.6207 10.872 55.1487 10.768 55.7354 10.768ZM55.7674 11.816C55.0794 11.816 54.538 12.016 54.1434 12.416C53.7487 12.8107 53.5034 13.36 53.4074 14.064H57.8154C57.8154 13.7333 57.77 13.432 57.6794 13.16C57.5887 12.8827 57.4554 12.6453 57.2794 12.448C57.1034 12.2453 56.8874 12.0907 56.6314 11.984C56.3807 11.872 56.0927 11.816 55.7674 11.816ZM60.918 19V10.896H61.734C61.8887 10.896 61.9953 10.9253 62.054 10.984C62.1127 11.0427 62.1527 11.144 62.174 11.288L62.27 12.552C62.5473 11.9867 62.8887 11.5467 63.294 11.232C63.7047 10.912 64.1847 10.752 64.734 10.752C64.958 10.752 65.1607 10.7787 65.342 10.832C65.5233 10.88 65.6913 10.9493 65.846 11.04L65.662 12.104C65.6247 12.2373 65.542 12.304 65.414 12.304C65.3393 12.304 65.2247 12.28 65.07 12.232C64.9153 12.1787 64.6993 12.152 64.422 12.152C63.926 12.152 63.51 12.296 63.174 12.584C62.8433 12.872 62.566 13.2907 62.342 13.84V19H60.918ZM67.3711 19V10.896H68.2191C68.4218 10.896 68.5498 10.9947 68.6031 11.192L68.7071 12.024C69.0058 11.656 69.3391 11.3547 69.7071 11.12C70.0805 10.8853 70.5125 10.768 71.0031 10.768C71.5525 10.768 71.9951 10.92 72.3311 11.224C72.6725 11.528 72.9178 11.9387 73.0671 12.456C73.1791 12.1627 73.3258 11.9093 73.5071 11.696C73.6938 11.4827 73.9018 11.3067 74.1311 11.168C74.3605 11.0293 74.6031 10.928 74.8591 10.864C75.1205 10.8 75.3845 10.768 75.6511 10.768C76.0778 10.768 76.4565 10.8373 76.7871 10.976C77.1231 11.1093 77.4058 11.3067 77.6351 11.568C77.8698 11.8293 78.0485 12.152 78.1711 12.536C78.2938 12.9147 78.3551 13.3493 78.3551 13.84V19H76.9311V13.84C76.9311 13.2053 76.7925 12.7253 76.5151 12.4C76.2378 12.0693 75.8351 11.904 75.3071 11.904C75.0725 11.904 74.8485 11.9467 74.6351 12.032C74.4271 12.112 74.2431 12.232 74.0831 12.392C73.9231 12.552 73.7951 12.7547 73.6991 13C73.6085 13.24 73.5631 13.52 73.5631 13.84V19H72.1391V13.84C72.1391 13.1893 72.0085 12.704 71.7471 12.384C71.4858 12.064 71.1045 11.904 70.6031 11.904C70.2511 11.904 69.9231 12 69.6191 12.192C69.3205 12.3787 69.0458 12.6347 68.7951 12.96V19H67.3711ZM83.7198 10.768C84.2051 10.768 84.6531 10.8507 85.0638 11.016C85.4744 11.176 85.8291 11.4107 86.1278 11.72C86.4264 12.024 86.6584 12.4027 86.8238 12.856C86.9944 13.304 87.0798 13.816 87.0798 14.392C87.0798 14.616 87.0558 14.7653 87.0078 14.84C86.9598 14.9147 86.8691 14.952 86.7358 14.952H81.3438C81.3544 15.464 81.4238 15.9093 81.5518 16.288C81.6798 16.6667 81.8558 16.984 82.0798 17.24C82.3038 17.4907 82.5704 17.68 82.8798 17.808C83.1891 17.9307 83.5358 17.992 83.9198 17.992C84.2771 17.992 84.5838 17.952 84.8398 17.872C85.1011 17.7867 85.3251 17.696 85.5118 17.6C85.6984 17.504 85.8531 17.416 85.9758 17.336C86.1038 17.2507 86.2131 17.208 86.3038 17.208C86.4211 17.208 86.5118 17.2533 86.5758 17.344L86.9758 17.864C86.7998 18.0773 86.5891 18.264 86.3438 18.424C86.0984 18.5787 85.8344 18.7067 85.5518 18.808C85.2744 18.9093 84.9864 18.984 84.6878 19.032C84.3891 19.0853 84.0931 19.112 83.7998 19.112C83.2398 19.112 82.7224 19.0187 82.2478 18.832C81.7784 18.64 81.3704 18.3627 81.0238 18C80.6824 17.632 80.4158 17.1787 80.2238 16.64C80.0318 16.1013 79.9358 15.4827 79.9358 14.784C79.9358 14.2187 80.0211 13.6907 80.1918 13.2C80.3678 12.7093 80.6184 12.2853 80.9438 11.928C81.2691 11.5653 81.6664 11.2827 82.1358 11.08C82.6051 10.872 83.1331 10.768 83.7198 10.768ZM83.7517 11.816C83.0638 11.816 82.5224 12.016 82.1278 12.416C81.7331 12.8107 81.4878 13.36 81.3918 14.064H85.7998C85.7998 13.7333 85.7544 13.432 85.6638 13.16C85.5731 12.8827 85.4398 12.6453 85.2638 12.448C85.0878 12.2453 84.8718 12.0907 84.6158 11.984C84.3651 11.872 84.0771 11.816 83.7517 11.816ZM88.9024 19V10.896H89.7504C89.953 10.896 90.081 10.9947 90.1344 11.192L90.2464 12.072C90.5984 11.6827 90.9904 11.368 91.4224 11.128C91.8597 10.888 92.3637 10.768 92.9344 10.768C93.377 10.768 93.7664 10.8427 94.1024 10.992C94.4437 11.136 94.7264 11.344 94.9504 11.616C95.1797 11.8827 95.353 12.2053 95.4704 12.584C95.5877 12.9627 95.6464 13.3813 95.6464 13.84V19H94.2224V13.84C94.2224 13.2267 94.081 12.752 93.7984 12.416C93.521 12.0747 93.0944 11.904 92.5184 11.904C92.097 11.904 91.7024 12.0053 91.3344 12.208C90.9717 12.4107 90.6357 12.6853 90.3264 13.032V19H88.9024ZM100.249 19.128C99.609 19.128 99.1157 18.9493 98.769 18.592C98.4277 18.2347 98.257 17.72 98.257 17.048V12.088H97.281C97.1957 12.088 97.1237 12.064 97.065 12.016C97.0063 11.9627 96.977 11.8827 96.977 11.776V11.208L98.305 11.04L98.633 8.536C98.6437 8.456 98.6783 8.392 98.737 8.344C98.7957 8.29067 98.8703 8.264 98.961 8.264H99.681V11.056H102.001V12.088H99.681V16.952C99.681 17.2933 99.7637 17.5467 99.929 17.712C100.094 17.8773 100.308 17.96 100.569 17.96C100.718 17.96 100.846 17.9413 100.953 17.904C101.065 17.8613 101.161 17.816 101.241 17.768C101.321 17.72 101.388 17.6773 101.441 17.64C101.5 17.5973 101.55 17.576 101.593 17.576C101.668 17.576 101.734 17.6213 101.793 17.712L102.209 18.392C101.964 18.6213 101.668 18.8027 101.321 18.936C100.974 19.064 100.617 19.128 100.249 19.128ZM104.994 10.896V16.064C104.994 16.6773 105.135 17.152 105.418 17.488C105.7 17.824 106.127 17.992 106.698 17.992C107.114 17.992 107.506 17.8933 107.874 17.696C108.242 17.4987 108.58 17.224 108.89 16.872V10.896H110.314V19H109.466C109.263 19 109.135 18.9013 109.082 18.704L108.97 17.832C108.618 18.2213 108.223 18.536 107.786 18.776C107.348 19.0107 106.847 19.128 106.282 19.128C105.839 19.128 105.447 19.056 105.106 18.912C104.77 18.7627 104.487 18.5547 104.258 18.288C104.028 18.0213 103.855 17.6987 103.738 17.32C103.626 16.9413 103.57 16.5227 103.57 16.064V10.896H104.994ZM112.652 19V10.896H113.5C113.703 10.896 113.831 10.9947 113.884 11.192L113.988 12.024C114.287 11.656 114.62 11.3547 114.988 11.12C115.362 10.8853 115.794 10.768 116.284 10.768C116.834 10.768 117.276 10.92 117.612 11.224C117.954 11.528 118.199 11.9387 118.348 12.456C118.46 12.1627 118.607 11.9093 118.788 11.696C118.975 11.4827 119.183 11.3067 119.412 11.168C119.642 11.0293 119.884 10.928 120.14 10.864C120.402 10.8 120.666 10.768 120.932 10.768C121.359 10.768 121.738 10.8373 122.068 10.976C122.404 11.1093 122.687 11.3067 122.916 11.568C123.151 11.8293 123.33 12.152 123.452 12.536C123.575 12.9147 123.636 13.3493 123.636 13.84V19H122.212V13.84C122.212 13.2053 122.074 12.7253 121.796 12.4C121.519 12.0693 121.116 11.904 120.588 11.904C120.354 11.904 120.13 11.9467 119.916 12.032C119.708 12.112 119.524 12.232 119.364 12.392C119.204 12.552 119.076 12.7547 118.98 13C118.89 13.24 118.844 13.52 118.844 13.84V19H117.42V13.84C117.42 13.1893 117.29 12.704 117.028 12.384C116.767 12.064 116.386 11.904 115.884 11.904C115.532 11.904 115.204 12 114.9 12.192C114.602 12.3787 114.327 12.6347 114.076 12.96V19H112.652ZM130.471 10.896V19H129.047V10.896H130.471ZM130.791 8.352C130.791 8.49067 130.761 8.62133 130.703 8.744C130.649 8.86133 130.575 8.968 130.479 9.064C130.388 9.15467 130.281 9.22667 130.159 9.28C130.036 9.33333 129.905 9.36 129.767 9.36C129.628 9.36 129.497 9.33333 129.375 9.28C129.257 9.22667 129.151 9.15467 129.055 9.064C128.964 8.968 128.892 8.86133 128.839 8.744C128.785 8.62133 128.759 8.49067 128.759 8.352C128.759 8.21333 128.785 8.08267 128.839 7.96C128.892 7.832 128.964 7.72267 129.055 7.632C129.151 7.536 129.257 7.46133 129.375 7.408C129.497 7.35467 129.628 7.328 129.767 7.328C129.905 7.328 130.036 7.35467 130.159 7.408C130.281 7.46133 130.388 7.536 130.479 7.632C130.575 7.72267 130.649 7.832 130.703 7.96C130.761 8.08267 130.791 8.21333 130.791 8.352ZM132.981 19V10.896H133.829C134.031 10.896 134.159 10.9947 134.213 11.192L134.325 12.072C134.677 11.6827 135.069 11.368 135.501 11.128C135.938 10.888 136.442 10.768 137.013 10.768C137.455 10.768 137.845 10.8427 138.181 10.992C138.522 11.136 138.805 11.344 139.029 11.616C139.258 11.8827 139.431 12.2053 139.549 12.584C139.666 12.9627 139.725 13.3813 139.725 13.84V19H138.301V13.84C138.301 13.2267 138.159 12.752 137.877 12.416C137.599 12.0747 137.173 11.904 136.597 11.904C136.175 11.904 135.781 12.0053 135.413 12.208C135.05 12.4107 134.714 12.6853 134.405 13.032V19H132.981ZM144.965 19V10.896H145.813C146.016 10.896 146.144 10.9947 146.197 11.192L146.301 12.024C146.6 11.656 146.933 11.3547 147.301 11.12C147.674 10.8853 148.106 10.768 148.597 10.768C149.146 10.768 149.589 10.92 149.925 11.224C150.266 11.528 150.512 11.9387 150.661 12.456C150.773 12.1627 150.92 11.9093 151.101 11.696C151.288 11.4827 151.496 11.3067 151.725 11.168C151.954 11.0293 152.197 10.928 152.453 10.864C152.714 10.8 152.978 10.768 153.245 10.768C153.672 10.768 154.05 10.8373 154.381 10.976C154.717 11.1093 155 11.3067 155.229 11.568C155.464 11.8293 155.642 12.152 155.765 12.536C155.888 12.9147 155.949 13.3493 155.949 13.84V19H154.525V13.84C154.525 13.2053 154.386 12.7253 154.109 12.4C153.832 12.0693 153.429 11.904 152.901 11.904C152.666 11.904 152.442 11.9467 152.229 12.032C152.021 12.112 151.837 12.232 151.677 12.392C151.517 12.552 151.389 12.7547 151.293 13C151.202 13.24 151.157 13.52 151.157 13.84V19H149.733V13.84C149.733 13.1893 149.602 12.704 149.341 12.384C149.08 12.064 148.698 11.904 148.197 11.904C147.845 11.904 147.517 12 147.213 12.192C146.914 12.3787 146.64 12.6347 146.389 12.96V19H144.965ZM161.386 10.768C161.978 10.768 162.511 10.8667 162.986 11.064C163.466 11.2613 163.871 11.5413 164.202 11.904C164.538 12.2667 164.794 12.7067 164.97 13.224C165.151 13.736 165.242 14.3093 165.242 14.944C165.242 15.584 165.151 16.16 164.97 16.672C164.794 17.184 164.538 17.6213 164.202 17.984C163.871 18.3467 163.466 18.6267 162.986 18.824C162.511 19.016 161.978 19.112 161.386 19.112C160.794 19.112 160.258 19.016 159.778 18.824C159.303 18.6267 158.898 18.3467 158.562 17.984C158.226 17.6213 157.967 17.184 157.786 16.672C157.604 16.16 157.514 15.584 157.514 14.944C157.514 14.3093 157.604 13.736 157.786 13.224C157.967 12.7067 158.226 12.2667 158.562 11.904C158.898 11.5413 159.303 11.2613 159.778 11.064C160.258 10.8667 160.794 10.768 161.386 10.768ZM161.386 18C162.186 18 162.783 17.7333 163.178 17.2C163.572 16.6613 163.77 15.912 163.77 14.952C163.77 13.9867 163.572 13.2347 163.178 12.696C162.783 12.1573 162.186 11.888 161.386 11.888C160.98 11.888 160.628 11.9573 160.33 12.096C160.031 12.2347 159.78 12.4347 159.578 12.696C159.38 12.9573 159.231 13.28 159.13 13.664C159.034 14.0427 158.986 14.472 158.986 14.952C158.986 15.432 159.034 15.8613 159.13 16.24C159.231 16.6187 159.38 16.9387 159.578 17.2C159.78 17.456 160.031 17.6533 160.33 17.792C160.628 17.9307 160.98 18 161.386 18ZM166.996 19V10.896H167.812C167.967 10.896 168.073 10.9253 168.132 10.984C168.191 11.0427 168.231 11.144 168.252 11.288L168.348 12.552C168.625 11.9867 168.967 11.5467 169.372 11.232C169.783 10.912 170.263 10.752 170.812 10.752C171.036 10.752 171.239 10.7787 171.42 10.832C171.601 10.88 171.769 10.9493 171.924 11.04L171.74 12.104C171.703 12.2373 171.62 12.304 171.492 12.304C171.417 12.304 171.303 12.28 171.148 12.232C170.993 12.1787 170.777 12.152 170.5 12.152C170.004 12.152 169.588 12.296 169.252 12.584C168.921 12.872 168.644 13.2907 168.42 13.84V19H166.996ZM173.497 19V7.216H174.929V12.064C175.265 11.6747 175.649 11.3627 176.081 11.128C176.519 10.888 177.017 10.768 177.577 10.768C178.047 10.768 178.471 10.856 178.849 11.032C179.228 11.208 179.551 11.472 179.817 11.824C180.084 12.1707 180.289 12.6027 180.433 13.12C180.577 13.632 180.649 14.224 180.649 14.896C180.649 15.4933 180.569 16.0507 180.409 16.568C180.249 17.08 180.017 17.5253 179.713 17.904C179.415 18.2773 179.047 18.5733 178.609 18.792C178.177 19.0053 177.689 19.112 177.145 19.112C176.623 19.112 176.177 19.0107 175.809 18.808C175.447 18.6053 175.129 18.3227 174.857 17.96L174.785 18.696C174.743 18.8987 174.62 19 174.417 19H173.497ZM177.113 11.904C176.649 11.904 176.241 12.0107 175.889 12.224C175.543 12.4373 175.223 12.7387 174.929 13.128V17.048C175.185 17.4 175.468 17.648 175.777 17.792C176.092 17.936 176.441 18.008 176.825 18.008C177.583 18.008 178.164 17.7387 178.569 17.2C178.975 16.6613 179.177 15.8933 179.177 14.896C179.177 14.368 179.129 13.9147 179.033 13.536C178.943 13.1573 178.809 12.848 178.633 12.608C178.457 12.3627 178.241 12.184 177.985 12.072C177.729 11.96 177.439 11.904 177.113 11.904ZM183.971 10.896V19H182.547V10.896H183.971ZM184.291 8.352C184.291 8.49067 184.261 8.62133 184.203 8.744C184.149 8.86133 184.075 8.968 183.979 9.064C183.888 9.15467 183.781 9.22667 183.659 9.28C183.536 9.33333 183.405 9.36 183.267 9.36C183.128 9.36 182.997 9.33333 182.875 9.28C182.757 9.22667 182.651 9.15467 182.555 9.064C182.464 8.968 182.392 8.86133 182.339 8.744C182.285 8.62133 182.259 8.49067 182.259 8.352C182.259 8.21333 182.285 8.08267 182.339 7.96C182.392 7.832 182.464 7.72267 182.555 7.632C182.651 7.536 182.757 7.46133 182.875 7.408C182.997 7.35467 183.128 7.328 183.267 7.328C183.405 7.328 183.536 7.35467 183.659 7.408C183.781 7.46133 183.888 7.536 183.979 7.632C184.075 7.72267 184.149 7.832 184.203 7.96C184.261 8.08267 184.291 8.21333 184.291 8.352ZM189.574 21.744V10.896H190.422C190.625 10.896 190.753 10.9947 190.806 11.192L190.926 12.152C191.273 11.7307 191.668 11.392 192.11 11.136C192.558 10.88 193.073 10.752 193.654 10.752C194.118 10.752 194.54 10.8427 194.918 11.024C195.297 11.2 195.62 11.464 195.886 11.816C196.153 12.1627 196.358 12.5947 196.502 13.112C196.646 13.6293 196.718 14.224 196.718 14.896C196.718 15.4933 196.638 16.0507 196.478 16.568C196.318 17.08 196.089 17.5253 195.79 17.904C195.492 18.2773 195.124 18.5733 194.686 18.792C194.254 19.0053 193.766 19.112 193.222 19.112C192.721 19.112 192.292 19.0293 191.934 18.864C191.582 18.6987 191.27 18.464 190.998 18.16V21.744H189.574ZM193.182 11.904C192.718 11.904 192.31 12.0107 191.958 12.224C191.612 12.4373 191.292 12.7387 190.998 13.128V17.048C191.26 17.4 191.545 17.648 191.854 17.792C192.169 17.936 192.518 18.008 192.902 18.008C193.654 18.008 194.233 17.7387 194.638 17.2C195.044 16.6613 195.246 15.8933 195.246 14.896C195.246 14.368 195.198 13.9147 195.102 13.536C195.012 13.1573 194.878 12.848 194.702 12.608C194.526 12.3627 194.31 12.184 194.054 12.072C193.798 11.96 193.508 11.904 193.182 11.904ZM198.402 19V10.896H199.218C199.373 10.896 199.48 10.9253 199.538 10.984C199.597 11.0427 199.637 11.144 199.658 11.288L199.754 12.552C200.032 11.9867 200.373 11.5467 200.778 11.232C201.189 10.912 201.669 10.752 202.218 10.752C202.442 10.752 202.645 10.7787 202.826 10.832C203.008 10.88 203.176 10.9493 203.33 11.04L203.146 12.104C203.109 12.2373 203.026 12.304 202.898 12.304C202.824 12.304 202.709 12.28 202.554 12.232C202.4 12.1787 202.184 12.152 201.906 12.152C201.41 12.152 200.994 12.296 200.658 12.584C200.328 12.872 200.05 13.2907 199.826 13.84V19H198.402ZM208.064 10.768C208.549 10.768 208.997 10.8507 209.408 11.016C209.818 11.176 210.173 11.4107 210.472 11.72C210.77 12.024 211.002 12.4027 211.168 12.856C211.338 13.304 211.424 13.816 211.424 14.392C211.424 14.616 211.4 14.7653 211.352 14.84C211.304 14.9147 211.213 14.952 211.08 14.952H205.688C205.698 15.464 205.768 15.9093 205.896 16.288C206.024 16.6667 206.2 16.984 206.424 17.24C206.648 17.4907 206.914 17.68 207.224 17.808C207.533 17.9307 207.88 17.992 208.264 17.992C208.621 17.992 208.928 17.952 209.184 17.872C209.445 17.7867 209.669 17.696 209.856 17.6C210.042 17.504 210.197 17.416 210.32 17.336C210.448 17.2507 210.557 17.208 210.648 17.208C210.765 17.208 210.856 17.2533 210.92 17.344L211.32 17.864C211.144 18.0773 210.933 18.264 210.688 18.424C210.442 18.5787 210.178 18.7067 209.896 18.808C209.618 18.9093 209.33 18.984 209.032 19.032C208.733 19.0853 208.437 19.112 208.144 19.112C207.584 19.112 207.066 19.0187 206.592 18.832C206.122 18.64 205.714 18.3627 205.368 18C205.026 17.632 204.76 17.1787 204.568 16.64C204.376 16.1013 204.28 15.4827 204.28 14.784C204.28 14.2187 204.365 13.6907 204.536 13.2C204.712 12.7093 204.962 12.2853 205.288 11.928C205.613 11.5653 206.01 11.2827 206.48 11.08C206.949 10.872 207.477 10.768 208.064 10.768ZM208.095 11.816C207.408 11.816 206.866 12.016 206.472 12.416C206.077 12.8107 205.832 13.36 205.736 14.064H210.144C210.144 13.7333 210.098 13.432 210.008 13.16C209.917 12.8827 209.784 12.6453 209.608 12.448C209.432 12.2453 209.216 12.0907 208.96 11.984C208.709 11.872 208.421 11.816 208.095 11.816ZM215.702 19.128C215.062 19.128 214.569 18.9493 214.222 18.592C213.881 18.2347 213.71 17.72 213.71 17.048V12.088H212.734C212.649 12.088 212.577 12.064 212.518 12.016C212.459 11.9627 212.43 11.8827 212.43 11.776V11.208L213.758 11.04L214.086 8.536C214.097 8.456 214.131 8.392 214.19 8.344C214.249 8.29067 214.323 8.264 214.414 8.264H215.134V11.056H217.454V12.088H215.134V16.952C215.134 17.2933 215.217 17.5467 215.382 17.712C215.547 17.8773 215.761 17.96 216.022 17.96C216.171 17.96 216.299 17.9413 216.406 17.904C216.518 17.8613 216.614 17.816 216.694 17.768C216.774 17.72 216.841 17.6773 216.894 17.64C216.953 17.5973 217.003 17.576 217.046 17.576C217.121 17.576 217.187 17.6213 217.246 17.712L217.662 18.392C217.417 18.6213 217.121 18.8027 216.774 18.936C216.427 19.064 216.07 19.128 215.702 19.128ZM220.799 10.896V19H219.375V10.896H220.799ZM221.119 8.352C221.119 8.49067 221.09 8.62133 221.031 8.744C220.978 8.86133 220.903 8.968 220.807 9.064C220.716 9.15467 220.61 9.22667 220.487 9.28C220.364 9.33333 220.234 9.36 220.095 9.36C219.956 9.36 219.826 9.33333 219.703 9.28C219.586 9.22667 219.479 9.15467 219.383 9.064C219.292 8.968 219.22 8.86133 219.167 8.744C219.114 8.62133 219.087 8.49067 219.087 8.352C219.087 8.21333 219.114 8.08267 219.167 7.96C219.22 7.832 219.292 7.72267 219.383 7.632C219.479 7.536 219.586 7.46133 219.703 7.408C219.826 7.35467 219.956 7.328 220.095 7.328C220.234 7.328 220.364 7.35467 220.487 7.408C220.61 7.46133 220.716 7.536 220.807 7.632C220.903 7.72267 220.978 7.832 221.031 7.96C221.09 8.08267 221.119 8.21333 221.119 8.352ZM224.541 10.896V16.064C224.541 16.6773 224.682 17.152 224.965 17.488C225.247 17.824 225.674 17.992 226.245 17.992C226.661 17.992 227.053 17.8933 227.421 17.696C227.789 17.4987 228.127 17.224 228.437 16.872V10.896H229.861V19H229.013C228.81 19 228.682 18.9013 228.629 18.704L228.517 17.832C228.165 18.2213 227.77 18.536 227.333 18.776C226.895 19.0107 226.394 19.128 225.829 19.128C225.386 19.128 224.994 19.056 224.653 18.912C224.317 18.7627 224.034 18.5547 223.805 18.288C223.575 18.0213 223.402 17.6987 223.285 17.32C223.173 16.9413 223.117 16.5227 223.117 16.064V10.896H224.541ZM232.199 19V10.896H233.047C233.25 10.896 233.378 10.9947 233.431 11.192L233.535 12.024C233.834 11.656 234.167 11.3547 234.535 11.12C234.909 10.8853 235.341 10.768 235.831 10.768C236.381 10.768 236.823 10.92 237.159 11.224C237.501 11.528 237.746 11.9387 237.895 12.456C238.007 12.1627 238.154 11.9093 238.335 11.696C238.522 11.4827 238.73 11.3067 238.959 11.168C239.189 11.0293 239.431 10.928 239.687 10.864C239.949 10.8 240.213 10.768 240.479 10.768C240.906 10.768 241.285 10.8373 241.615 10.976C241.951 11.1093 242.234 11.3067 242.463 11.568C242.698 11.8293 242.877 12.152 242.999 12.536C243.122 12.9147 243.183 13.3493 243.183 13.84V19H241.759V13.84C241.759 13.2053 241.621 12.7253 241.343 12.4C241.066 12.0693 240.663 11.904 240.135 11.904C239.901 11.904 239.677 11.9467 239.463 12.032C239.255 12.112 239.071 12.232 238.911 12.392C238.751 12.552 238.623 12.7547 238.527 13C238.437 13.24 238.391 13.52 238.391 13.84V19H236.967V13.84C236.967 13.1893 236.837 12.704 236.575 12.384C236.314 12.064 235.933 11.904 235.431 11.904C235.079 11.904 234.751 12 234.447 12.192C234.149 12.3787 233.874 12.6347 233.623 12.96V19H232.199ZM254.386 19H253.754C253.615 19 253.503 18.9787 253.418 18.936C253.332 18.8933 253.276 18.8027 253.25 18.664L253.09 17.912C252.876 18.104 252.668 18.2773 252.466 18.432C252.263 18.5813 252.05 18.7093 251.826 18.816C251.602 18.9173 251.362 18.9947 251.106 19.048C250.855 19.1013 250.575 19.128 250.266 19.128C249.951 19.128 249.655 19.0853 249.378 19C249.106 18.9093 248.868 18.776 248.666 18.6C248.463 18.424 248.3 18.2027 248.178 17.936C248.06 17.664 248.002 17.344 248.002 16.976C248.002 16.656 248.09 16.3493 248.266 16.056C248.442 15.7573 248.724 15.4933 249.114 15.264C249.508 15.0347 250.023 14.848 250.658 14.704C251.292 14.5547 252.068 14.4693 252.986 14.448V13.816C252.986 13.1867 252.85 12.712 252.578 12.392C252.311 12.0667 251.914 11.904 251.386 11.904C251.039 11.904 250.746 11.9493 250.506 12.04C250.271 12.1253 250.066 12.224 249.89 12.336C249.719 12.4427 249.57 12.5413 249.442 12.632C249.319 12.7173 249.196 12.76 249.074 12.76C248.978 12.76 248.892 12.736 248.818 12.688C248.748 12.6347 248.692 12.5707 248.65 12.496L248.394 12.04C248.842 11.608 249.324 11.2853 249.842 11.072C250.359 10.8587 250.932 10.752 251.562 10.752C252.015 10.752 252.418 10.8267 252.77 10.976C253.122 11.1253 253.418 11.3333 253.658 11.6C253.898 11.8667 254.079 12.1893 254.202 12.568C254.324 12.9467 254.386 13.3627 254.386 13.816V19ZM250.69 18.128C250.94 18.128 251.17 18.104 251.378 18.056C251.586 18.0027 251.78 17.9307 251.962 17.84C252.148 17.744 252.324 17.6293 252.49 17.496C252.66 17.3627 252.826 17.2107 252.986 17.04V15.352C252.33 15.3733 251.772 15.4267 251.314 15.512C250.855 15.592 250.482 15.6987 250.194 15.832C249.906 15.9653 249.695 16.1227 249.562 16.304C249.434 16.4853 249.37 16.688 249.37 16.912C249.37 17.1253 249.404 17.3093 249.474 17.464C249.543 17.6187 249.636 17.7467 249.754 17.848C249.871 17.944 250.01 18.016 250.17 18.064C250.33 18.1067 250.503 18.128 250.69 18.128ZM258.127 7.216V19H256.703V7.216H258.127ZM262.221 10.896V19H260.797V10.896H262.221ZM262.541 8.352C262.541 8.49067 262.511 8.62133 262.453 8.744C262.399 8.86133 262.325 8.968 262.229 9.064C262.138 9.15467 262.031 9.22667 261.909 9.28C261.786 9.33333 261.655 9.36 261.517 9.36C261.378 9.36 261.247 9.33333 261.125 9.28C261.007 9.22667 260.901 9.15467 260.805 9.064C260.714 8.968 260.642 8.86133 260.589 8.744C260.535 8.62133 260.509 8.49067 260.509 8.352C260.509 8.21333 260.535 8.08267 260.589 7.96C260.642 7.832 260.714 7.72267 260.805 7.632C260.901 7.536 261.007 7.46133 261.125 7.408C261.247 7.35467 261.378 7.328 261.517 7.328C261.655 7.328 261.786 7.35467 261.909 7.408C262.031 7.46133 262.138 7.536 262.229 7.632C262.325 7.72267 262.399 7.832 262.453 7.96C262.511 8.08267 262.541 8.21333 262.541 8.352ZM271.283 10.896V21.744H269.859V17.8C269.517 18.1947 269.128 18.512 268.691 18.752C268.259 18.992 267.763 19.112 267.203 19.112C266.739 19.112 266.317 19.024 265.939 18.848C265.56 18.6667 265.237 18.4027 264.971 18.056C264.704 17.7093 264.499 17.2773 264.355 16.76C264.211 16.2427 264.139 15.648 264.139 14.976C264.139 14.3787 264.219 13.824 264.379 13.312C264.539 12.7947 264.768 12.3467 265.067 11.968C265.371 11.5893 265.739 11.2933 266.171 11.08C266.603 10.8613 267.093 10.752 267.643 10.752C268.165 10.752 268.608 10.8453 268.971 11.032C269.339 11.2187 269.667 11.4827 269.955 11.824L270.051 11.192C270.104 10.9947 270.232 10.896 270.435 10.896H271.283ZM267.674 17.96C268.139 17.96 268.544 17.8533 268.891 17.64C269.243 17.4267 269.565 17.1253 269.859 16.736V12.816C269.603 12.4747 269.317 12.232 269.003 12.088C268.688 11.9387 268.341 11.864 267.963 11.864C267.205 11.864 266.624 12.1333 266.219 12.672C265.813 13.2107 265.611 13.9787 265.611 14.976C265.611 15.504 265.656 15.9573 265.747 16.336C265.837 16.7093 265.971 17.0187 266.147 17.264C266.323 17.504 266.539 17.68 266.795 17.792C267.051 17.904 267.344 17.96 267.674 17.96ZM274.9 10.896V16.064C274.9 16.6773 275.041 17.152 275.324 17.488C275.607 17.824 276.033 17.992 276.604 17.992C277.02 17.992 277.412 17.8933 277.78 17.696C278.148 17.4987 278.487 17.224 278.796 16.872V10.896H280.22V19H279.372C279.169 19 279.041 18.9013 278.988 18.704L278.876 17.832C278.524 18.2213 278.129 18.536 277.692 18.776C277.255 19.0107 276.753 19.128 276.188 19.128C275.745 19.128 275.353 19.056 275.012 18.912C274.676 18.7627 274.393 18.5547 274.164 18.288C273.935 18.0213 273.761 17.6987 273.644 17.32C273.532 16.9413 273.476 16.5227 273.476 16.064V10.896H274.9ZM288.511 19H287.879C287.74 19 287.628 18.9787 287.543 18.936C287.457 18.8933 287.401 18.8027 287.375 18.664L287.215 17.912C287.001 18.104 286.793 18.2773 286.591 18.432C286.388 18.5813 286.175 18.7093 285.951 18.816C285.727 18.9173 285.487 18.9947 285.231 19.048C284.98 19.1013 284.7 19.128 284.391 19.128C284.076 19.128 283.78 19.0853 283.503 19C283.231 18.9093 282.993 18.776 282.791 18.6C282.588 18.424 282.425 18.2027 282.303 17.936C282.185 17.664 282.127 17.344 282.127 16.976C282.127 16.656 282.215 16.3493 282.391 16.056C282.567 15.7573 282.849 15.4933 283.239 15.264C283.633 15.0347 284.148 14.848 284.783 14.704C285.417 14.5547 286.193 14.4693 287.111 14.448V13.816C287.111 13.1867 286.975 12.712 286.703 12.392C286.436 12.0667 286.039 11.904 285.511 11.904C285.164 11.904 284.871 11.9493 284.631 12.04C284.396 12.1253 284.191 12.224 284.015 12.336C283.844 12.4427 283.695 12.5413 283.567 12.632C283.444 12.7173 283.321 12.76 283.199 12.76C283.103 12.76 283.017 12.736 282.943 12.688C282.873 12.6347 282.817 12.5707 282.775 12.496L282.519 12.04C282.967 11.608 283.449 11.2853 283.967 11.072C284.484 10.8587 285.057 10.752 285.687 10.752C286.14 10.752 286.543 10.8267 286.895 10.976C287.247 11.1253 287.543 11.3333 287.783 11.6C288.023 11.8667 288.204 12.1893 288.327 12.568C288.449 12.9467 288.511 13.3627 288.511 13.816V19ZM284.815 18.128C285.065 18.128 285.295 18.104 285.503 18.056C285.711 18.0027 285.905 17.9307 286.087 17.84C286.273 17.744 286.449 17.6293 286.615 17.496C286.785 17.3627 286.951 17.2107 287.111 17.04V15.352C286.455 15.3733 285.897 15.4267 285.439 15.512C284.98 15.592 284.607 15.6987 284.319 15.832C284.031 15.9653 283.82 16.1227 283.687 16.304C283.559 16.4853 283.495 16.688 283.495 16.912C283.495 17.1253 283.529 17.3093 283.599 17.464C283.668 17.6187 283.761 17.7467 283.879 17.848C283.996 17.944 284.135 18.016 284.295 18.064C284.455 18.1067 284.628 18.128 284.815 18.128ZM290.668 19V10.896H291.516C291.719 10.896 291.847 10.9947 291.9 11.192L292.004 12.024C292.303 11.656 292.636 11.3547 293.004 11.12C293.377 10.8853 293.809 10.768 294.3 10.768C294.849 10.768 295.292 10.92 295.628 11.224C295.969 11.528 296.215 11.9387 296.364 12.456C296.476 12.1627 296.623 11.9093 296.804 11.696C296.991 11.4827 297.199 11.3067 297.428 11.168C297.657 11.0293 297.9 10.928 298.156 10.864C298.417 10.8 298.681 10.768 298.948 10.768C299.375 10.768 299.753 10.8373 300.084 10.976C300.42 11.1093 300.703 11.3067 300.932 11.568C301.167 11.8293 301.345 12.152 301.468 12.536C301.591 12.9147 301.652 13.3493 301.652 13.84V19H300.228V13.84C300.228 13.2053 300.089 12.7253 299.812 12.4C299.535 12.0693 299.132 11.904 298.604 11.904C298.369 11.904 298.145 11.9467 297.932 12.032C297.724 12.112 297.54 12.232 297.38 12.392C297.22 12.552 297.092 12.7547 296.996 13C296.905 13.24 296.86 13.52 296.86 13.84V19H295.436V13.84C295.436 13.1893 295.305 12.704 295.044 12.384C294.783 12.064 294.401 11.904 293.9 11.904C293.548 11.904 293.22 12 292.916 12.192C292.617 12.3787 292.343 12.6347 292.092 12.96V19H290.668ZM312.854 19H312.222C312.084 19 311.972 18.9787 311.886 18.936C311.801 18.8933 311.745 18.8027 311.718 18.664L311.558 17.912C311.345 18.104 311.137 18.2773 310.934 18.432C310.732 18.5813 310.518 18.7093 310.294 18.816C310.07 18.9173 309.83 18.9947 309.574 19.048C309.324 19.1013 309.044 19.128 308.734 19.128C308.42 19.128 308.124 19.0853 307.846 19C307.574 18.9093 307.337 18.776 307.134 18.6C306.932 18.424 306.769 18.2027 306.646 17.936C306.529 17.664 306.47 17.344 306.47 16.976C306.47 16.656 306.558 16.3493 306.734 16.056C306.91 15.7573 307.193 15.4933 307.582 15.264C307.977 15.0347 308.492 14.848 309.126 14.704C309.761 14.5547 310.537 14.4693 311.454 14.448V13.816C311.454 13.1867 311.318 12.712 311.046 12.392C310.78 12.0667 310.382 11.904 309.854 11.904C309.508 11.904 309.214 11.9493 308.974 12.04C308.74 12.1253 308.534 12.224 308.358 12.336C308.188 12.4427 308.038 12.5413 307.91 12.632C307.788 12.7173 307.665 12.76 307.542 12.76C307.446 12.76 307.361 12.736 307.286 12.688C307.217 12.6347 307.161 12.5707 307.118 12.496L306.862 12.04C307.31 11.608 307.793 11.2853 308.31 11.072C308.828 10.8587 309.401 10.752 310.03 10.752C310.484 10.752 310.886 10.8267 311.238 10.976C311.59 11.1253 311.886 11.3333 312.126 11.6C312.366 11.8667 312.548 12.1893 312.67 12.568C312.793 12.9467 312.854 13.3627 312.854 13.816V19ZM309.158 18.128C309.409 18.128 309.638 18.104 309.846 18.056C310.054 18.0027 310.249 17.9307 310.43 17.84C310.617 17.744 310.793 17.6293 310.958 17.496C311.129 17.3627 311.294 17.2107 311.454 17.04V15.352C310.798 15.3733 310.241 15.4267 309.782 15.512C309.324 15.592 308.95 15.6987 308.662 15.832C308.374 15.9653 308.164 16.1227 308.03 16.304C307.902 16.4853 307.838 16.688 307.838 16.912C307.838 17.1253 307.873 17.3093 307.942 17.464C308.012 17.6187 308.105 17.7467 308.222 17.848C308.34 17.944 308.478 18.016 308.638 18.064C308.798 18.1067 308.972 18.128 309.158 18.128ZM320.716 19C320.513 19 320.385 18.9013 320.332 18.704L320.204 17.72C319.857 18.1413 319.46 18.48 319.012 18.736C318.569 18.9867 318.06 19.112 317.484 19.112C317.02 19.112 316.598 19.024 316.22 18.848C315.841 18.6667 315.518 18.4027 315.252 18.056C314.985 17.7093 314.78 17.2773 314.636 16.76C314.492 16.2427 314.42 15.648 314.42 14.976C314.42 14.3787 314.5 13.824 314.66 13.312C314.82 12.7947 315.049 12.3467 315.348 11.968C315.652 11.5893 316.02 11.2933 316.452 11.08C316.884 10.8613 317.374 10.752 317.924 10.752C318.42 10.752 318.844 10.8373 319.196 11.008C319.548 11.1733 319.862 11.408 320.14 11.712V7.216H321.564V19H320.716ZM317.956 17.96C318.42 17.96 318.825 17.8533 319.172 17.64C319.524 17.4267 319.846 17.1253 320.14 16.736V12.816C319.878 12.464 319.59 12.2187 319.276 12.08C318.966 11.936 318.622 11.864 318.244 11.864C317.486 11.864 316.905 12.1333 316.5 12.672C316.094 13.2107 315.892 13.9787 315.892 14.976C315.892 15.504 315.937 15.9573 316.028 16.336C316.118 16.7093 316.252 17.0187 316.428 17.264C316.604 17.504 316.82 17.68 317.076 17.792C317.332 17.904 317.625 17.96 317.956 17.96ZM325.533 10.896V19H324.109V10.896H325.533ZM325.853 8.352C325.853 8.49067 325.824 8.62133 325.765 8.744C325.712 8.86133 325.637 8.968 325.541 9.064C325.451 9.15467 325.344 9.22667 325.221 9.28C325.099 9.33333 324.968 9.36 324.829 9.36C324.691 9.36 324.56 9.33333 324.437 9.28C324.32 9.22667 324.213 9.15467 324.117 9.064C324.027 8.968 323.955 8.86133 323.901 8.744C323.848 8.62133 323.821 8.49067 323.821 8.352C323.821 8.21333 323.848 8.08267 323.901 7.96C323.955 7.832 324.027 7.72267 324.117 7.632C324.213 7.536 324.32 7.46133 324.437 7.408C324.56 7.35467 324.691 7.328 324.829 7.328C324.968 7.328 325.099 7.35467 325.221 7.408C325.344 7.46133 325.451 7.536 325.541 7.632C325.637 7.72267 325.712 7.832 325.765 7.96C325.824 8.08267 325.853 8.21333 325.853 8.352ZM328.043 21.744V10.896H328.891C329.094 10.896 329.222 10.9947 329.275 11.192L329.395 12.152C329.742 11.7307 330.136 11.392 330.579 11.136C331.027 10.88 331.542 10.752 332.123 10.752C332.587 10.752 333.008 10.8427 333.387 11.024C333.766 11.2 334.088 11.464 334.355 11.816C334.622 12.1627 334.827 12.5947 334.971 13.112C335.115 13.6293 335.187 14.224 335.187 14.896C335.187 15.4933 335.107 16.0507 334.947 16.568C334.787 17.08 334.558 17.5253 334.259 17.904C333.96 18.2773 333.592 18.5733 333.155 18.792C332.723 19.0053 332.235 19.112 331.691 19.112C331.19 19.112 330.76 19.0293 330.403 18.864C330.051 18.6987 329.739 18.464 329.467 18.16V21.744H328.043ZM331.651 11.904C331.187 11.904 330.779 12.0107 330.427 12.224C330.08 12.4373 329.76 12.7387 329.467 13.128V17.048C329.728 17.4 330.014 17.648 330.323 17.792C330.638 17.936 330.987 18.008 331.371 18.008C332.123 18.008 332.702 17.7387 333.107 17.2C333.512 16.6613 333.715 15.8933 333.715 14.896C333.715 14.368 333.667 13.9147 333.571 13.536C333.48 13.1573 333.347 12.848 333.171 12.608C332.995 12.3627 332.779 12.184 332.523 12.072C332.267 11.96 331.976 11.904 331.651 11.904ZM338.455 10.896V19H337.031V10.896H338.455ZM338.775 8.352C338.775 8.49067 338.746 8.62133 338.687 8.744C338.634 8.86133 338.559 8.968 338.463 9.064C338.372 9.15467 338.266 9.22667 338.143 9.28C338.02 9.33333 337.89 9.36 337.751 9.36C337.612 9.36 337.482 9.33333 337.359 9.28C337.242 9.22667 337.135 9.15467 337.039 9.064C336.948 8.968 336.876 8.86133 336.823 8.744C336.77 8.62133 336.743 8.49067 336.743 8.352C336.743 8.21333 336.77 8.08267 336.823 7.96C336.876 7.832 336.948 7.72267 337.039 7.632C337.135 7.536 337.242 7.46133 337.359 7.408C337.482 7.35467 337.612 7.328 337.751 7.328C337.89 7.328 338.02 7.35467 338.143 7.408C338.266 7.46133 338.372 7.536 338.463 7.632C338.559 7.72267 338.634 7.832 338.687 7.96C338.746 8.08267 338.775 8.21333 338.775 8.352ZM345.605 12.232C345.541 12.3493 345.442 12.408 345.309 12.408C345.229 12.408 345.138 12.3787 345.037 12.32C344.936 12.2613 344.81 12.1973 344.661 12.128C344.517 12.0533 344.344 11.9867 344.141 11.928C343.938 11.864 343.698 11.832 343.421 11.832C343.181 11.832 342.965 11.864 342.773 11.928C342.581 11.9867 342.416 12.0693 342.277 12.176C342.144 12.2827 342.04 12.408 341.965 12.552C341.896 12.6907 341.861 12.8427 341.861 13.008C341.861 13.216 341.92 13.3893 342.037 13.528C342.16 13.6667 342.32 13.7867 342.517 13.888C342.714 13.9893 342.938 14.08 343.189 14.16C343.44 14.2347 343.696 14.3173 343.957 14.408C344.224 14.4933 344.482 14.5893 344.733 14.696C344.984 14.8027 345.208 14.936 345.405 15.096C345.602 15.256 345.76 15.4533 345.877 15.688C346 15.9173 346.061 16.1947 346.061 16.52C346.061 16.8933 345.994 17.24 345.861 17.56C345.728 17.8747 345.53 18.1493 345.269 18.384C345.008 18.6133 344.688 18.7947 344.309 18.928C343.93 19.0613 343.493 19.128 342.997 19.128C342.432 19.128 341.92 19.0373 341.461 18.856C341.002 18.6693 340.613 18.432 340.293 18.144L340.629 17.6C340.672 17.5307 340.722 17.4773 340.781 17.44C340.84 17.4027 340.917 17.384 341.013 17.384C341.109 17.384 341.21 17.4213 341.317 17.496C341.424 17.5707 341.552 17.6533 341.701 17.744C341.856 17.8347 342.04 17.9173 342.253 17.992C342.472 18.0667 342.744 18.104 343.069 18.104C343.346 18.104 343.589 18.0693 343.797 18C344.005 17.9253 344.178 17.8267 344.317 17.704C344.456 17.5813 344.557 17.44 344.621 17.28C344.69 17.12 344.725 16.9493 344.725 16.768C344.725 16.544 344.664 16.36 344.541 16.216C344.424 16.0667 344.266 15.9413 344.069 15.84C343.872 15.7333 343.645 15.6427 343.389 15.568C343.138 15.488 342.88 15.4053 342.613 15.32C342.352 15.2347 342.093 15.1387 341.837 15.032C341.586 14.92 341.362 14.7813 341.165 14.616C340.968 14.4507 340.808 14.248 340.685 14.008C340.568 13.7627 340.509 13.4667 340.509 13.12C340.509 12.8107 340.573 12.5147 340.701 12.232C340.829 11.944 341.016 11.6933 341.261 11.48C341.506 11.2613 341.808 11.088 342.165 10.96C342.522 10.832 342.93 10.768 343.389 10.768C343.922 10.768 344.4 10.8533 344.821 11.024C345.248 11.1893 345.616 11.4187 345.925 11.712L345.605 12.232ZM353.43 12.336C353.388 12.3947 353.345 12.44 353.302 12.472C353.26 12.504 353.198 12.52 353.118 12.52C353.038 12.52 352.95 12.488 352.854 12.424C352.764 12.3547 352.646 12.28 352.502 12.2C352.358 12.12 352.182 12.048 351.974 11.984C351.772 11.9147 351.521 11.88 351.222 11.88C350.828 11.88 350.478 11.952 350.174 12.096C349.87 12.2347 349.614 12.4373 349.406 12.704C349.204 12.9707 349.049 13.2933 348.942 13.672C348.841 14.0507 348.79 14.4747 348.79 14.944C348.79 15.4347 348.846 15.872 348.958 16.256C349.07 16.6347 349.228 16.9547 349.43 17.216C349.633 17.472 349.878 17.6693 350.166 17.808C350.46 17.9413 350.788 18.008 351.15 18.008C351.497 18.008 351.782 17.968 352.006 17.888C352.23 17.8027 352.417 17.7093 352.566 17.608C352.716 17.5067 352.838 17.416 352.934 17.336C353.03 17.2507 353.126 17.208 353.222 17.208C353.345 17.208 353.436 17.2533 353.494 17.344L353.894 17.864C353.542 18.296 353.102 18.6133 352.574 18.816C352.046 19.0133 351.489 19.112 350.902 19.112C350.396 19.112 349.924 19.0187 349.486 18.832C349.054 18.6453 348.678 18.376 348.358 18.024C348.038 17.6667 347.785 17.2293 347.598 16.712C347.417 16.1947 347.326 15.6053 347.326 14.944C347.326 14.3413 347.409 13.784 347.574 13.272C347.745 12.76 347.99 12.32 348.31 11.952C348.636 11.5787 349.036 11.288 349.51 11.08C349.985 10.872 350.529 10.768 351.142 10.768C351.708 10.768 352.209 10.8613 352.646 11.048C353.084 11.2293 353.47 11.488 353.806 11.824L353.43 12.336ZM356.955 10.896V19H355.531V10.896H356.955ZM357.275 8.352C357.275 8.49067 357.246 8.62133 357.187 8.744C357.134 8.86133 357.059 8.968 356.963 9.064C356.872 9.15467 356.766 9.22667 356.643 9.28C356.52 9.33333 356.39 9.36 356.251 9.36C356.112 9.36 355.982 9.33333 355.859 9.28C355.742 9.22667 355.635 9.15467 355.539 9.064C355.448 8.968 355.376 8.86133 355.323 8.744C355.27 8.62133 355.243 8.49067 355.243 8.352C355.243 8.21333 355.27 8.08267 355.323 7.96C355.376 7.832 355.448 7.72267 355.539 7.632C355.635 7.536 355.742 7.46133 355.859 7.408C355.982 7.35467 356.112 7.328 356.251 7.328C356.39 7.328 356.52 7.35467 356.643 7.408C356.766 7.46133 356.872 7.536 356.963 7.632C357.059 7.72267 357.134 7.832 357.187 7.96C357.246 8.08267 357.275 8.21333 357.275 8.352ZM359.465 19V10.896H360.313C360.516 10.896 360.644 10.9947 360.697 11.192L360.809 12.072C361.161 11.6827 361.553 11.368 361.985 11.128C362.422 10.888 362.926 10.768 363.497 10.768C363.94 10.768 364.329 10.8427 364.665 10.992C365.006 11.136 365.289 11.344 365.513 11.616C365.742 11.8827 365.916 12.2053 366.033 12.584C366.15 12.9627 366.209 13.3813 366.209 13.84V19H364.785V13.84C364.785 13.2267 364.644 12.752 364.361 12.416C364.084 12.0747 363.657 11.904 363.081 11.904C362.66 11.904 362.265 12.0053 361.897 12.208C361.534 12.4107 361.198 12.6853 360.889 13.032V19H359.465ZM371.084 10.76C371.436 10.76 371.764 10.8 372.068 10.88C372.377 10.9547 372.657 11.0667 372.908 11.216H375.108V11.744C375.108 11.92 374.996 12.032 374.772 12.08L373.852 12.208C374.033 12.5547 374.124 12.9413 374.124 13.368C374.124 13.7627 374.046 14.1227 373.892 14.448C373.742 14.768 373.532 15.0427 373.26 15.272C372.993 15.5013 372.673 15.6773 372.3 15.8C371.932 15.9227 371.526 15.984 371.084 15.984C370.705 15.984 370.348 15.9387 370.012 15.848C369.841 15.9547 369.71 16.0693 369.62 16.192C369.534 16.3147 369.492 16.4347 369.492 16.552C369.492 16.744 369.569 16.8907 369.724 16.992C369.878 17.088 370.084 17.1573 370.34 17.2C370.596 17.2427 370.886 17.2693 371.212 17.28C371.537 17.2907 371.868 17.3093 372.204 17.336C372.545 17.3573 372.878 17.3973 373.204 17.456C373.529 17.5147 373.82 17.6107 374.076 17.744C374.332 17.8773 374.537 18.0613 374.692 18.296C374.846 18.5307 374.924 18.8347 374.924 19.208C374.924 19.5547 374.836 19.8907 374.66 20.216C374.489 20.5413 374.241 20.8293 373.916 21.08C373.59 21.336 373.193 21.5387 372.724 21.688C372.254 21.8427 371.724 21.92 371.132 21.92C370.54 21.92 370.02 21.8613 369.572 21.744C369.129 21.6267 368.761 21.4693 368.468 21.272C368.174 21.0747 367.953 20.8453 367.804 20.584C367.66 20.328 367.588 20.0587 367.588 19.776C367.588 19.376 367.713 19.0373 367.964 18.76C368.22 18.4773 368.569 18.2533 369.012 18.088C368.782 17.9813 368.598 17.84 368.46 17.664C368.326 17.4827 368.26 17.2427 368.26 16.944C368.26 16.8267 368.281 16.7067 368.324 16.584C368.366 16.456 368.43 16.3307 368.516 16.208C368.606 16.0853 368.716 15.968 368.844 15.856C368.972 15.744 369.121 15.6453 369.292 15.56C368.892 15.336 368.577 15.04 368.348 14.672C368.124 14.2987 368.012 13.864 368.012 13.368C368.012 12.9733 368.086 12.616 368.236 12.296C368.39 11.9707 368.604 11.696 368.876 11.472C369.148 11.2427 369.47 11.0667 369.844 10.944C370.222 10.8213 370.636 10.76 371.084 10.76ZM373.612 19.44C373.612 19.2373 373.556 19.0747 373.444 18.952C373.332 18.8293 373.18 18.736 372.988 18.672C372.796 18.6027 372.574 18.552 372.324 18.52C372.073 18.488 371.809 18.4667 371.532 18.456C371.254 18.44 370.972 18.424 370.684 18.408C370.396 18.392 370.121 18.3627 369.86 18.32C369.556 18.464 369.308 18.64 369.116 18.848C368.929 19.056 368.836 19.304 368.836 19.592C368.836 19.7733 368.881 19.9413 368.972 20.096C369.068 20.256 369.212 20.392 369.404 20.504C369.596 20.6213 369.836 20.712 370.124 20.776C370.417 20.8453 370.761 20.88 371.156 20.88C371.54 20.88 371.884 20.8453 372.188 20.776C372.492 20.7067 372.748 20.608 372.956 20.48C373.169 20.352 373.332 20.2 373.444 20.024C373.556 19.848 373.612 19.6533 373.612 19.44ZM371.084 15.04C371.372 15.04 371.625 15 371.844 14.92C372.068 14.84 372.254 14.728 372.404 14.584C372.553 14.44 372.665 14.2693 372.74 14.072C372.814 13.8693 372.852 13.648 372.852 13.408C372.852 12.912 372.7 12.5173 372.396 12.224C372.097 11.9307 371.66 11.784 371.084 11.784C370.513 11.784 370.076 11.9307 369.772 12.224C369.473 12.5173 369.324 12.912 369.324 13.408C369.324 13.648 369.361 13.8693 369.436 14.072C369.516 14.2693 369.63 14.44 369.78 14.584C369.929 14.728 370.113 14.84 370.332 14.92C370.55 15 370.801 15.04 371.084 15.04ZM38.872 45C38.6693 45 38.5413 44.9013 38.488 44.704L38.36 43.72C38.0133 44.1413 37.616 44.48 37.168 44.736C36.7253 44.9867 36.216 45.112 35.64 45.112C35.176 45.112 34.7547 45.024 34.376 44.848C33.9973 44.6667 33.6747 44.4027 33.408 44.056C33.1413 43.7093 32.936 43.2773 32.792 42.76C32.648 42.2427 32.576 41.648 32.576 40.976C32.576 40.3787 32.656 39.824 32.816 39.312C32.976 38.7947 33.2053 38.3467 33.504 37.968C33.808 37.5893 34.176 37.2933 34.608 37.08C35.04 36.8613 35.5307 36.752 36.08 36.752C36.576 36.752 37 36.8373 37.352 37.008C37.704 37.1733 38.0187 37.408 38.296 37.712V33.216H39.72V45H38.872ZM36.112 43.96C36.576 43.96 36.9813 43.8533 37.328 43.64C37.68 43.4267 38.0027 43.1253 38.296 42.736V38.816C38.0347 38.464 37.7467 38.2187 37.432 38.08C37.1227 37.936 36.7787 37.864 36.4 37.864C35.6427 37.864 35.0613 38.1333 34.656 38.672C34.2507 39.2107 34.048 39.9787 34.048 40.976C34.048 41.504 34.0933 41.9573 34.184 42.336C34.2747 42.7093 34.408 43.0187 34.584 43.264C34.76 43.504 34.976 43.68 35.232 43.792C35.488 43.904 35.7813 43.96 36.112 43.96ZM45.3855 36.768C45.9775 36.768 46.5108 36.8667 46.9855 37.064C47.4655 37.2613 47.8708 37.5413 48.2015 37.904C48.5375 38.2667 48.7935 38.7067 48.9695 39.224C49.1508 39.736 49.2415 40.3093 49.2415 40.944C49.2415 41.584 49.1508 42.16 48.9695 42.672C48.7935 43.184 48.5375 43.6213 48.2015 43.984C47.8708 44.3467 47.4655 44.6267 46.9855 44.824C46.5108 45.016 45.9775 45.112 45.3855 45.112C44.7935 45.112 44.2575 45.016 43.7775 44.824C43.3028 44.6267 42.8975 44.3467 42.5615 43.984C42.2255 43.6213 41.9668 43.184 41.7855 42.672C41.6042 42.16 41.5135 41.584 41.5135 40.944C41.5135 40.3093 41.6042 39.736 41.7855 39.224C41.9668 38.7067 42.2255 38.2667 42.5615 37.904C42.8975 37.5413 43.3028 37.2613 43.7775 37.064C44.2575 36.8667 44.7935 36.768 45.3855 36.768ZM45.3855 44C46.1855 44 46.7828 43.7333 47.1775 43.2C47.5722 42.6613 47.7695 41.912 47.7695 40.952C47.7695 39.9867 47.5722 39.2347 47.1775 38.696C46.7828 38.1573 46.1855 37.888 45.3855 37.888C44.9802 37.888 44.6282 37.9573 44.3295 38.096C44.0308 38.2347 43.7802 38.4347 43.5775 38.696C43.3802 38.9573 43.2308 39.28 43.1295 39.664C43.0335 40.0427 42.9855 40.472 42.9855 40.952C42.9855 41.432 43.0335 41.8613 43.1295 42.24C43.2308 42.6187 43.3802 42.9387 43.5775 43.2C43.7802 43.456 44.0308 43.6533 44.3295 43.792C44.6282 43.9307 44.9802 44 45.3855 44ZM50.9961 45V36.896H51.8441C52.0468 36.896 52.1748 36.9947 52.2281 37.192L52.3401 38.072C52.6921 37.6827 53.0841 37.368 53.5161 37.128C53.9535 36.888 54.4575 36.768 55.0281 36.768C55.4708 36.768 55.8601 36.8427 56.1961 36.992C56.5375 37.136 56.8201 37.344 57.0441 37.616C57.2735 37.8827 57.4468 38.2053 57.5641 38.584C57.6815 38.9627 57.7401 39.3813 57.7401 39.84V45H56.3161V39.84C56.3161 39.2267 56.1748 38.752 55.8921 38.416C55.6148 38.0747 55.1881 37.904 54.6121 37.904C54.1908 37.904 53.7961 38.0053 53.4281 38.208C53.0655 38.4107 52.7295 38.6853 52.4201 39.032V45H50.9961ZM63.0948 36.768C63.5801 36.768 64.0281 36.8507 64.4388 37.016C64.8494 37.176 65.2041 37.4107 65.5028 37.72C65.8014 38.024 66.0334 38.4027 66.1988 38.856C66.3694 39.304 66.4548 39.816 66.4548 40.392C66.4548 40.616 66.4308 40.7653 66.3828 40.84C66.3348 40.9147 66.2441 40.952 66.1108 40.952H60.7188C60.7294 41.464 60.7988 41.9093 60.9268 42.288C61.0548 42.6667 61.2308 42.984 61.4548 43.24C61.6788 43.4907 61.9454 43.68 62.2548 43.808C62.5641 43.9307 62.9108 43.992 63.2948 43.992C63.6521 43.992 63.9588 43.952 64.2148 43.872C64.4761 43.7867 64.7001 43.696 64.8868 43.6C65.0734 43.504 65.2281 43.416 65.3508 43.336C65.4788 43.2507 65.5881 43.208 65.6788 43.208C65.7961 43.208 65.8868 43.2533 65.9508 43.344L66.3508 43.864C66.1748 44.0773 65.9641 44.264 65.7188 44.424C65.4734 44.5787 65.2094 44.7067 64.9268 44.808C64.6494 44.9093 64.3614 44.984 64.0628 45.032C63.7641 45.0853 63.4681 45.112 63.1748 45.112C62.6148 45.112 62.0974 45.0187 61.6228 44.832C61.1534 44.64 60.7454 44.3627 60.3988 44C60.0574 43.632 59.7908 43.1787 59.5988 42.64C59.4068 42.1013 59.3108 41.4827 59.3108 40.784C59.3108 40.2187 59.3961 39.6907 59.5668 39.2C59.7428 38.7093 59.9934 38.2853 60.3188 37.928C60.6441 37.5653 61.0414 37.2827 61.5108 37.08C61.9801 36.872 62.5081 36.768 63.0948 36.768ZM63.1267 37.816C62.4388 37.816 61.8974 38.016 61.5028 38.416C61.1081 38.8107 60.8628 39.36 60.7668 40.064H65.1748C65.1748 39.7333 65.1294 39.432 65.0388 39.16C64.9481 38.8827 64.8148 38.6453 64.6388 38.448C64.4628 38.2453 64.2468 38.0907 63.9908 37.984C63.7401 37.872 63.4521 37.816 63.1267 37.816ZM73.8054 38.336C73.7627 38.3947 73.72 38.44 73.6774 38.472C73.6347 38.504 73.5734 38.52 73.4934 38.52C73.4134 38.52 73.3254 38.488 73.2294 38.424C73.1387 38.3547 73.0214 38.28 72.8774 38.2C72.7334 38.12 72.5574 38.048 72.3494 37.984C72.1467 37.9147 71.896 37.88 71.5974 37.88C71.2027 37.88 70.8534 37.952 70.5494 38.096C70.2454 38.2347 69.9894 38.4373 69.7814 38.704C69.5787 38.9707 69.424 39.2933 69.3174 39.672C69.216 40.0507 69.1654 40.4747 69.1654 40.944C69.1654 41.4347 69.2214 41.872 69.3334 42.256C69.4454 42.6347 69.6027 42.9547 69.8054 43.216C70.008 43.472 70.2534 43.6693 70.5414 43.808C70.8347 43.9413 71.1627 44.008 71.5254 44.008C71.872 44.008 72.1574 43.968 72.3814 43.888C72.6054 43.8027 72.792 43.7093 72.9414 43.608C73.0907 43.5067 73.2134 43.416 73.3094 43.336C73.4054 43.2507 73.5014 43.208 73.5974 43.208C73.72 43.208 73.8107 43.2533 73.8694 43.344L74.2694 43.864C73.9174 44.296 73.4774 44.6133 72.9494 44.816C72.4214 45.0133 71.864 45.112 71.2774 45.112C70.7707 45.112 70.2987 45.0187 69.8614 44.832C69.4294 44.6453 69.0534 44.376 68.7334 44.024C68.4134 43.6667 68.16 43.2293 67.9734 42.712C67.792 42.1947 67.7014 41.6053 67.7014 40.944C67.7014 40.3413 67.784 39.784 67.9494 39.272C68.12 38.76 68.3654 38.32 68.6854 37.952C69.0107 37.5787 69.4107 37.288 69.8854 37.08C70.36 36.872 70.904 36.768 71.5174 36.768C72.0827 36.768 72.584 36.8613 73.0214 37.048C73.4587 37.2293 73.8454 37.488 74.1814 37.824L73.8054 38.336ZM81.2959 45.128C80.6559 45.128 80.1625 44.9493 79.8159 44.592C79.4745 44.2347 79.3039 43.72 79.3039 43.048V38.088H78.3279C78.2425 38.088 78.1705 38.064 78.1119 38.016C78.0532 37.9627 78.0239 37.8827 78.0239 37.776V37.208L79.3519 37.04L79.6799 34.536C79.6905 34.456 79.7252 34.392 79.7839 34.344C79.8425 34.2907 79.9172 34.264 80.0079 34.264H80.7279V37.056H83.0479V38.088H80.7279V42.952C80.7279 43.2933 80.8105 43.5467 80.9759 43.712C81.1412 43.8773 81.3545 43.96 81.6159 43.96C81.7652 43.96 81.8932 43.9413 81.9999 43.904C82.1119 43.8613 82.2079 43.816 82.2879 43.768C82.3679 43.72 82.4345 43.6773 82.4879 43.64C82.5465 43.5973 82.5972 43.576 82.6399 43.576C82.7145 43.576 82.7812 43.6213 82.8399 43.712L83.2559 44.392C83.0105 44.6213 82.7145 44.8027 82.3679 44.936C82.0212 45.064 81.6639 45.128 81.2959 45.128ZM88.0166 36.768C88.502 36.768 88.95 36.8507 89.3606 37.016C89.7713 37.176 90.126 37.4107 90.4246 37.72C90.7233 38.024 90.9553 38.4027 91.1206 38.856C91.2913 39.304 91.3766 39.816 91.3766 40.392C91.3766 40.616 91.3526 40.7653 91.3046 40.84C91.2566 40.9147 91.166 40.952 91.0326 40.952H85.6406C85.6513 41.464 85.7206 41.9093 85.8486 42.288C85.9766 42.6667 86.1526 42.984 86.3766 43.24C86.6006 43.4907 86.8673 43.68 87.1766 43.808C87.486 43.9307 87.8326 43.992 88.2166 43.992C88.574 43.992 88.8806 43.952 89.1366 43.872C89.398 43.7867 89.622 43.696 89.8086 43.6C89.9953 43.504 90.15 43.416 90.2726 43.336C90.4006 43.2507 90.51 43.208 90.6006 43.208C90.718 43.208 90.8086 43.2533 90.8726 43.344L91.2726 43.864C91.0966 44.0773 90.886 44.264 90.6406 44.424C90.3953 44.5787 90.1313 44.7067 89.8486 44.808C89.5713 44.9093 89.2833 44.984 88.9846 45.032C88.686 45.0853 88.39 45.112 88.0966 45.112C87.5366 45.112 87.0193 45.0187 86.5446 44.832C86.0753 44.64 85.6673 44.3627 85.3206 44C84.9793 43.632 84.7126 43.1787 84.5206 42.64C84.3286 42.1013 84.2326 41.4827 84.2326 40.784C84.2326 40.2187 84.318 39.6907 84.4886 39.2C84.6646 38.7093 84.9153 38.2853 85.2406 37.928C85.566 37.5653 85.9633 37.2827 86.4326 37.08C86.902 36.872 87.43 36.768 88.0166 36.768ZM88.0486 37.816C87.3606 37.816 86.8193 38.016 86.4246 38.416C86.03 38.8107 85.7846 39.36 85.6886 40.064H90.0966C90.0966 39.7333 90.0513 39.432 89.9606 39.16C89.87 38.8827 89.7366 38.6453 89.5606 38.448C89.3846 38.2453 89.1686 38.0907 88.9126 37.984C88.662 37.872 88.374 37.816 88.0486 37.816ZM93.1993 45V36.896H94.0473C94.2499 36.896 94.3779 36.9947 94.4313 37.192L94.5353 38.024C94.8339 37.656 95.1673 37.3547 95.5353 37.12C95.9086 36.8853 96.3406 36.768 96.8313 36.768C97.3806 36.768 97.8233 36.92 98.1593 37.224C98.5006 37.528 98.7459 37.9387 98.8953 38.456C99.0073 38.1627 99.1539 37.9093 99.3353 37.696C99.5219 37.4827 99.7299 37.3067 99.9593 37.168C100.189 37.0293 100.431 36.928 100.687 36.864C100.949 36.8 101.213 36.768 101.479 36.768C101.906 36.768 102.285 36.8373 102.615 36.976C102.951 37.1093 103.234 37.3067 103.463 37.568C103.698 37.8293 103.877 38.152 103.999 38.536C104.122 38.9147 104.183 39.3493 104.183 39.84V45H102.759V39.84C102.759 39.2053 102.621 38.7253 102.343 38.4C102.066 38.0693 101.663 37.904 101.135 37.904C100.901 37.904 100.677 37.9467 100.463 38.032C100.255 38.112 100.071 38.232 99.9113 38.392C99.7513 38.552 99.6233 38.7547 99.5273 39C99.4366 39.24 99.3913 39.52 99.3913 39.84V45H97.9673V39.84C97.9673 39.1893 97.8366 38.704 97.5753 38.384C97.3139 38.064 96.9326 37.904 96.4313 37.904C96.0793 37.904 95.7513 38 95.4473 38.192C95.1486 38.3787 94.8739 38.6347 94.6233 38.96V45H93.1993ZM106.34 47.744V36.896H107.188C107.391 36.896 107.519 36.9947 107.572 37.192L107.692 38.152C108.039 37.7307 108.433 37.392 108.876 37.136C109.324 36.88 109.839 36.752 110.42 36.752C110.884 36.752 111.305 36.8427 111.684 37.024C112.063 37.2 112.385 37.464 112.652 37.816C112.919 38.1627 113.124 38.5947 113.268 39.112C113.412 39.6293 113.484 40.224 113.484 40.896C113.484 41.4933 113.404 42.0507 113.244 42.568C113.084 43.08 112.855 43.5253 112.556 43.904C112.257 44.2773 111.889 44.5733 111.452 44.792C111.02 45.0053 110.532 45.112 109.988 45.112C109.487 45.112 109.057 45.0293 108.7 44.864C108.348 44.6987 108.036 44.464 107.764 44.16V47.744H106.34ZM109.948 37.904C109.484 37.904 109.076 38.0107 108.724 38.224C108.377 38.4373 108.057 38.7387 107.764 39.128V43.048C108.025 43.4 108.311 43.648 108.62 43.792C108.935 43.936 109.284 44.008 109.668 44.008C110.42 44.008 110.999 43.7387 111.404 43.2C111.809 42.6613 112.012 41.8933 112.012 40.896C112.012 40.368 111.964 39.9147 111.868 39.536C111.777 39.1573 111.644 38.848 111.468 38.608C111.292 38.3627 111.076 38.184 110.82 38.072C110.564 37.96 110.273 37.904 109.948 37.904ZM116.4 36.896V42.064C116.4 42.6773 116.541 43.152 116.824 43.488C117.107 43.824 117.533 43.992 118.104 43.992C118.52 43.992 118.912 43.8933 119.28 43.696C119.648 43.4987 119.987 43.224 120.296 42.872V36.896H121.72V45H120.872C120.669 45 120.541 44.9013 120.488 44.704L120.376 43.832C120.024 44.2213 119.629 44.536 119.192 44.776C118.755 45.0107 118.253 45.128 117.688 45.128C117.245 45.128 116.853 45.056 116.512 44.912C116.176 44.7627 115.893 44.5547 115.664 44.288C115.435 44.0213 115.261 43.6987 115.144 43.32C115.032 42.9413 114.976 42.5227 114.976 42.064V36.896H116.4ZM128.699 38.232C128.635 38.3493 128.536 38.408 128.403 38.408C128.323 38.408 128.232 38.3787 128.131 38.32C128.029 38.2613 127.904 38.1973 127.755 38.128C127.611 38.0533 127.437 37.9867 127.235 37.928C127.032 37.864 126.792 37.832 126.515 37.832C126.275 37.832 126.059 37.864 125.867 37.928C125.675 37.9867 125.509 38.0693 125.371 38.176C125.237 38.2827 125.133 38.408 125.059 38.552C124.989 38.6907 124.955 38.8427 124.955 39.008C124.955 39.216 125.013 39.3893 125.131 39.528C125.253 39.6667 125.413 39.7867 125.611 39.888C125.808 39.9893 126.032 40.08 126.283 40.16C126.533 40.2347 126.789 40.3173 127.051 40.408C127.317 40.4933 127.576 40.5893 127.827 40.696C128.077 40.8027 128.301 40.936 128.499 41.096C128.696 41.256 128.853 41.4533 128.971 41.688C129.093 41.9173 129.155 42.1947 129.155 42.52C129.155 42.8933 129.088 43.24 128.955 43.56C128.821 43.8747 128.624 44.1493 128.363 44.384C128.101 44.6133 127.781 44.7947 127.403 44.928C127.024 45.0613 126.587 45.128 126.091 45.128C125.525 45.128 125.013 45.0373 124.555 44.856C124.096 44.6693 123.707 44.432 123.387 44.144L123.723 43.6C123.765 43.5307 123.816 43.4773 123.875 43.44C123.933 43.4027 124.011 43.384 124.107 43.384C124.203 43.384 124.304 43.4213 124.411 43.496C124.517 43.5707 124.645 43.6533 124.795 43.744C124.949 43.8347 125.133 43.9173 125.347 43.992C125.565 44.0667 125.837 44.104 126.163 44.104C126.44 44.104 126.683 44.0693 126.891 44C127.099 43.9253 127.272 43.8267 127.411 43.704C127.549 43.5813 127.651 43.44 127.715 43.28C127.784 43.12 127.819 42.9493 127.819 42.768C127.819 42.544 127.757 42.36 127.635 42.216C127.517 42.0667 127.36 41.9413 127.163 41.84C126.965 41.7333 126.739 41.6427 126.483 41.568C126.232 41.488 125.973 41.4053 125.707 41.32C125.445 41.2347 125.187 41.1387 124.931 41.032C124.68 40.92 124.456 40.7813 124.259 40.616C124.061 40.4507 123.901 40.248 123.779 40.008C123.661 39.7627 123.603 39.4667 123.603 39.12C123.603 38.8107 123.667 38.5147 123.795 38.232C123.923 37.944 124.109 37.6933 124.355 37.48C124.6 37.2613 124.901 37.088 125.259 36.96C125.616 36.832 126.024 36.768 126.483 36.768C127.016 36.768 127.493 36.8533 127.915 37.024C128.341 37.1893 128.709 37.4187 129.019 37.712L128.699 38.232ZM130.532 44.12C130.532 43.9813 130.556 43.8507 130.604 43.728C130.657 43.6053 130.727 43.4987 130.812 43.408C130.903 43.3173 131.009 43.2453 131.132 43.192C131.255 43.1387 131.385 43.112 131.524 43.112C131.663 43.112 131.793 43.1387 131.916 43.192C132.039 43.2453 132.145 43.3173 132.236 43.408C132.327 43.4987 132.396 43.6053 132.444 43.728C132.497 43.8507 132.524 43.9813 132.524 44.12C132.524 44.264 132.497 44.3973 132.444 44.52C132.396 44.6373 132.327 44.7413 132.236 44.832C132.145 44.9227 132.039 44.992 131.916 45.04C131.793 45.0933 131.663 45.12 131.524 45.12C131.385 45.12 131.255 45.0933 131.132 45.04C131.009 44.992 130.903 44.9227 130.812 44.832C130.727 44.7413 130.657 44.6373 130.604 44.52C130.556 44.3973 130.532 44.264 130.532 44.12Z" fill="#424551"/>
<defs>
<clipPath id="clip0_2492_14498">
<rect width="16" height="16" fill="white" transform="translate(0 5)"/>
</clipPath>
</defs>
</svg>
